<svg width="70" height="70" viewBox="0 0 70 70" fill="none" xmlns="http://www.w3.org/2000/svg">
<path d="M59.0625 56.875H29.5312V53.5938H50.3125C51.1827 53.5938 52.0173 53.248 52.6327 52.6327C53.248 52.0173 53.5938 51.1827 53.5938 50.3125C53.5938 49.4423 53.248 48.6077 52.6327 47.9923C52.0173 47.377 51.1827 47.0312 50.3125 47.0312H35C34.4758 47.0327 33.9597 47.1597 33.4947 47.4017C33.0297 47.6436 32.6294 47.9934 32.3274 48.4218C32.0254 48.8502 31.8304 49.3447 31.7588 49.864C31.6871 50.3832 31.7409 50.9121 31.9156 51.4062H29.5312V28.4375H33.9062V29.5312C33.9076 30.2923 34.1735 31.0292 34.6583 31.6158C35.1432 32.2024 35.8169 32.6023 36.5641 32.7469L40.0422 37.975C40.4116 38.5193 40.9438 38.9328 41.5625 39.1562V42.6562C41.5625 42.9463 41.6777 43.2245 41.8829 43.4296C42.088 43.6348 42.3662 43.75 42.6562 43.75C42.9463 43.75 43.2245 43.6348 43.4296 43.4296C43.6348 43.2245 43.75 42.9463 43.75 42.6562V39.1562C44.3687 38.9328 44.9009 38.5193 45.2703 37.975L48.7484 32.7469C49.4956 32.6023 50.1693 32.2024 50.6542 31.6158C51.139 31.0292 51.4049 30.2923 51.4062 29.5312V28.4375H52.5C53.9504 28.4375 55.3414 27.8613 56.367 26.8357C57.3926 25.8102 57.9688 24.4192 57.9688 22.9688V13.125C59.1291 13.125 60.2419 12.6641 61.0623 11.8436C61.8828 11.0231 62.3438 9.91032 62.3438 8.75C62.3438 7.58968 61.8828 6.47688 61.0623 5.65641C60.2419 4.83594 59.1291 4.375 57.9688 4.375H12.0312C10.8709 4.375 9.75813 4.83594 8.93766 5.65641C8.11719 6.47688 7.65625 7.58968 7.65625 8.75C7.65625 9.91032 8.11719 11.0231 8.93766 11.8436C9.75813 12.6641 10.8709 13.125 12.0312 13.125H22.9688V18.5938H17.5C16.0496 18.5938 14.6586 19.1699 13.633 20.1955C12.6074 21.2211 12.0312 22.6121 12.0312 24.0625V37.1875C12.0312 38.6379 12.6074 40.0289 13.633 41.0545C14.6586 42.0801 16.0496 42.6562 17.5 42.6562H22.9688V56.875H10.9375C10.0673 56.875 9.23266 57.2207 8.61731 57.8361C8.00195 58.4514 7.65625 59.286 7.65625 60.1562V62.3438C7.65625 63.214 8.00195 64.0486 8.61731 64.6639C9.23266 65.2793 10.0673 65.625 10.9375 65.625H59.0625C59.9327 65.625 60.7673 65.2793 61.3827 64.6639C61.998 64.0486 62.3438 63.214 62.3438 62.3438V60.1562C62.3438 59.286 61.998 58.4514 61.3827 57.8361C60.7673 57.2207 59.9327 56.875 59.0625 56.875ZM43.4438 36.7609C43.3535 36.8852 43.235 36.9863 43.0982 37.0561C42.9613 37.1258 42.8099 37.1622 42.6562 37.1622C42.5026 37.1622 42.3512 37.1258 42.2143 37.0561C42.0775 36.9863 41.959 36.8852 41.8687 36.7609L39.2328 32.8125H46.0797L43.4438 36.7609ZM49.2188 29.5312C49.2188 29.8213 49.1035 30.0995 48.8984 30.3046C48.6933 30.5098 48.4151 30.625 48.125 30.625H37.1875C36.8974 30.625 36.6192 30.5098 36.4141 30.3046C36.209 30.0995 36.0938 29.8213 36.0938 29.5312V28.4375H49.2188V29.5312ZM55.7812 22.9688C55.7812 23.839 55.4355 24.6736 54.8202 25.2889C54.2048 25.9043 53.3702 26.25 52.5 26.25H29.5312V13.125H55.7812V22.9688ZM9.84375 8.75C9.84375 8.16984 10.0742 7.61344 10.4845 7.2032C10.8947 6.79297 11.4511 6.5625 12.0312 6.5625H57.9688C58.5489 6.5625 59.1053 6.79297 59.5155 7.2032C59.9258 7.61344 60.1562 8.16984 60.1562 8.75C60.1562 9.33016 59.9258 9.88656 59.5155 10.2968C59.1053 10.707 58.5489 10.9375 57.9688 10.9375H12.0312C11.4511 10.9375 10.8947 10.707 10.4845 10.2968C10.0742 9.88656 9.84375 9.33016 9.84375 8.75ZM17.5 20.7812H22.9688V29.5312H14.2188V24.0625C14.2188 23.1923 14.5645 22.3577 15.1798 21.7423C15.7952 21.127 16.6298 20.7812 17.5 20.7812ZM17.5 40.4688C16.6298 40.4688 15.7952 40.123 15.1798 39.5077C14.5645 38.8923 14.2188 38.0577 14.2188 37.1875V31.7188H22.9688V40.4688H17.5ZM25.1562 41.5625V13.125H27.3438V56.875H25.1562V41.5625ZM47.0312 22.9688C47.6802 22.9688 48.3146 22.7763 48.8542 22.4158C49.3938 22.0552 49.8144 21.5427 50.0627 20.9432C50.3111 20.3436 50.3761 19.6839 50.2495 19.0474C50.1228 18.4109 49.8103 17.8262 49.3514 17.3673C48.8926 16.9084 48.3079 16.5959 47.6714 16.4693C47.0349 16.3427 46.3751 16.4077 45.7756 16.656C45.176 16.9044 44.6635 17.3249 44.303 17.8645C43.9424 18.4041 43.75 19.0385 43.75 19.6875C43.75 20.5577 44.0957 21.3923 44.7111 22.0077C45.3264 22.623 46.161 22.9688 47.0312 22.9688ZM38.2812 22.9688C38.9302 22.9688 39.5646 22.7763 40.1042 22.4158C40.6438 22.0552 41.0644 21.5427 41.3127 20.9432C41.5611 20.3436 41.6261 19.6839 41.4995 19.0474C41.3728 18.4109 41.0603 17.8262 40.6014 17.3673C40.1426 16.9084 39.5579 16.5959 38.9214 16.4693C38.2849 16.3427 37.6251 16.4077 37.0256 16.656C36.426 16.9044 35.9135 17.3249 35.553 17.8645C35.1924 18.4041 35 19.0385 35 19.6875C35 20.5577 35.3457 21.3923 35.9611 22.0077C36.5764 22.623 37.411 22.9688 38.2812 22.9688Z" fill="white"/>
</svg>
