<svg width="70" height="70" viewBox="0 0 70 70" fill="none" xmlns="http://www.w3.org/2000/svg">
<path d="M34.9999 0C15.7013 0 0 15.7013 0 34.9999C0 54.2985 15.7013 69.9999 34.9999 69.9999C54.2985 69.9999 69.9999 54.2985 69.9999 34.9999C69.9999 15.7013 54.2987 0 34.9999 0ZM34.9999 66.9564C17.3782 66.9564 3.04343 52.6217 3.04343 34.9999C3.04343 17.3782 17.3782 3.04343 34.9999 3.04343C52.6217 3.04343 66.9564 17.3782 66.9564 34.9999C66.9564 52.6217 52.6217 66.9564 34.9999 66.9564Z" fill="white"/>
<path d="M51.1851 18.9243C51.1669 18.9031 51.1607 18.8787 51.1395 18.8574C51.1182 18.8362 51.0938 18.833 51.0726 18.8118C46.9456 14.7122 41.2665 12.174 35 12.174C28.7336 12.174 23.0544 14.7122 18.9243 18.8148C18.9031 18.833 18.8787 18.8392 18.8574 18.8574C18.8362 18.8757 18.833 18.9031 18.8148 18.9243C14.7122 23.0543 12.174 28.7334 12.174 35C12.174 41.2665 14.7122 46.9456 18.8148 51.0757C18.833 51.097 18.8392 51.1214 18.8574 51.1426C18.8757 51.1609 18.9031 51.167 18.9243 51.1883C23.0543 55.2878 28.7334 57.8261 35 57.8261C41.2665 57.8261 46.9456 55.2878 51.0757 51.1853C51.097 51.167 51.1214 51.1609 51.1426 51.1396C51.1639 51.1184 51.167 51.094 51.1883 51.0727C55.2878 46.9458 57.8261 41.2666 57.8261 35.0002C57.826 28.7334 55.2877 23.0543 51.1851 18.9243ZM54.7065 33.4782H42.4564C42.2617 32.5134 41.8842 31.6095 41.3455 30.806L50.0042 22.1474C52.6643 25.2456 54.3747 29.1687 54.7065 33.4782ZM36.5217 15.2934C40.8312 15.6251 44.7543 17.3325 47.8555 19.9926L39.1786 28.6695C38.369 28.1491 37.4621 27.8021 36.5217 27.6225V15.2934ZM33.4782 15.2934V27.6195C32.5317 27.7991 31.6218 28.1491 30.8183 28.6665L22.1444 19.9926C25.2456 17.3356 29.1687 15.6251 33.4782 15.2934ZM19.9926 22.1442L28.6574 30.809C28.1157 31.6155 27.7352 32.5194 27.5435 33.4781H15.2934C15.6251 29.1687 17.3356 25.2456 19.9926 22.1442ZM15.2934 36.5217H27.5435C27.7382 37.4865 28.1157 38.3904 28.6544 39.1939L19.9957 47.8525C17.3356 44.7543 15.6251 40.8312 15.2934 36.5217ZM33.4782 54.7065C29.1687 54.3748 25.2456 52.6674 22.1444 50.0073L30.8092 41.3425C31.6156 41.8842 32.5195 42.2647 33.4782 42.4564V54.7065ZM31.7677 38.2017C30.9094 37.3617 30.4347 36.2265 30.4347 34.9999C30.4347 33.7734 30.9094 32.6381 31.7981 31.7707C33.4751 30.048 36.4941 30.0177 38.2321 31.7981C39.0903 32.6381 39.5651 33.7733 39.5651 34.9999C39.5651 36.2264 39.0903 37.3617 38.2321 38.2017C38.2291 38.2047 38.2291 38.2078 38.2259 38.2108C38.2229 38.2138 38.2198 38.2138 38.2168 38.2169C38.2138 38.2199 38.2138 38.2199 38.2138 38.2231C38.2108 38.2261 38.2047 38.2261 38.2017 38.2292C37.3617 39.0905 36.2234 39.5652 34.9999 39.5652C33.7764 39.5651 32.6382 39.0903 31.7677 38.2017ZM36.5217 54.7065V42.4564C37.4804 42.2617 38.3843 41.8842 39.1908 41.3425L47.8555 50.0073C44.7573 52.6673 40.8342 54.3747 36.5217 54.7065ZM50.0073 47.8555L41.3425 39.1908C41.8842 38.3843 42.2647 37.4804 42.4564 36.5217H54.7034C54.3747 40.8312 52.6643 44.7543 50.0073 47.8555Z" fill="white"/>
</svg>
