<svg width="70" height="70" viewBox="0 0 70 70" fill="none" xmlns="http://www.w3.org/2000/svg">
<g clip-path="url(#clip0_61_547)">
<path d="M67.2246 56.123L52.0078 42.2324C53.0195 40.373 53.7988 38.4043 54.332 36.3535L58.502 35.3145V24.6094L54.332 23.5703C53.7305 21.2051 52.7871 18.9492 51.543 16.8438L53.7578 13.166L46.1836 5.5918L42.5059 7.80664C40.4004 6.5625 38.1445 5.61914 35.7793 5.01758L34.7402 0.847656H24.0352L22.9961 5.01758C20.6172 5.61914 18.3613 6.5625 16.2695 7.80664L12.5781 5.5918L5.01758 13.166L7.23242 16.8438C5.98828 18.9492 5.05859 21.2051 4.44336 23.5703L0.273438 24.6094V35.3145L4.44336 36.3535C5.04492 38.7187 5.98828 40.9746 7.23242 43.0801L5.01758 46.7578L12.5781 54.332L16.2559 52.1172C18.3613 53.3613 20.6172 54.291 22.9824 54.9062L24.0215 59.0762H34.7266L35.7656 54.9062C38.3496 54.25 40.8106 53.1836 43.0801 51.7617L42.9981 51.6387L56.6973 66.6504C58.0781 68.1953 59.9785 69.084 62.043 69.1523H62.2754C64.2578 69.1523 66.1309 68.3867 67.5391 66.9648C69.002 65.502 69.7813 63.5469 69.7129 61.4824C69.6582 59.4043 68.7832 57.5039 67.2246 56.123ZM34.6035 52.8828L33.9336 53.0332L32.9902 56.834H25.7852L24.8418 53.0332L24.1719 52.8828C21.5879 52.2949 19.127 51.2832 16.8848 49.8613L16.2969 49.4922L12.9473 51.502L7.84766 46.4023L9.84375 43.0527L9.47461 42.4648C8.05274 40.2227 7.04102 37.7617 6.45313 35.1777L6.30273 34.5078L2.50195 33.5645V26.3594L6.30273 25.416L6.45313 24.7461C7.04102 22.1621 8.05274 19.7012 9.47461 17.459L9.84375 16.8711L7.83399 13.5078L12.9336 8.4082L16.2832 10.418L16.8711 10.0488C19.1133 8.62695 21.5742 7.61523 24.1582 7.02734L24.8281 6.87695L25.7715 3.07617H32.9766L33.9199 6.87695L34.5898 7.02734C37.1738 7.61523 39.6348 8.62695 41.877 10.0488L42.4648 10.418L45.8281 8.4082L50.9277 13.5078L48.918 16.8574L49.2871 17.4453C50.709 19.6875 51.7207 22.1484 52.3086 24.7324L52.459 25.4023L56.2598 26.3457V33.5508L52.459 34.4941L52.3086 35.1641C51.8711 37.0781 51.2012 38.9238 50.3125 40.6602L47.7148 38.3223C48.918 35.6973 49.5332 32.8809 49.5332 29.9551C49.5332 18.8398 40.4961 9.80273 29.3809 9.80273C18.2656 9.80273 9.22852 18.8535 9.22852 29.9551C9.22852 41.0566 18.2656 50.1074 29.3809 50.1074C32.8535 50.1074 36.2441 49.2051 39.252 47.5098L41.5625 50.0391C39.4023 51.3652 37.0645 52.3223 34.6035 52.8828ZM38.4316 19.3184C35.3145 16.2012 31.0215 14.7793 26.6328 15.3945L24.4043 15.709L31.8281 23.1328L29.5039 30.0918L22.5449 32.416L15.1211 24.9922L14.8066 27.207C14.1914 31.5957 15.6133 35.8887 18.7305 39.0059C22.8184 43.0937 28.916 44.2148 34.1523 41.918L37.707 45.8145C35.1504 47.1543 32.293 47.8652 29.3809 47.8652C19.5098 47.8652 11.4707 39.8262 11.4707 29.9551C11.4707 20.084 19.5098 12.0449 29.3809 12.0449C39.252 12.0449 47.291 20.084 47.291 29.9551C47.291 32.3066 46.8262 34.5762 45.9512 36.709L41.9453 33.0586C43.3398 28.2188 42 22.9004 38.4316 19.3184ZM65.9668 65.3789C64.9414 66.4043 63.6016 66.9512 62.125 66.9102C60.6758 66.8691 59.3496 66.2539 58.3652 65.1465L34.6856 39.1699L33.9199 39.5664C29.3945 41.8906 23.9258 41.0293 20.3164 37.4336C18.293 35.3965 17.1035 32.7715 16.9258 29.9688L21.9297 34.9727L31.2676 31.8555L34.3848 22.5176L29.3809 17.5137C32.1836 17.6914 34.8223 18.8672 36.8457 20.9043C40.0449 24.1035 41.0977 28.752 39.5938 33.0312L39.3477 33.7285L65.7207 57.7773L65.7344 57.791C66.8145 58.748 67.4434 60.0879 67.4844 61.5371C67.5254 62.9863 66.9922 64.3535 65.9668 65.3789Z" fill="white"/>
<path d="M61.8516 57.9551C60.0059 57.9551 58.4883 59.459 58.4883 61.3184C58.4883 63.1641 59.9922 64.6816 61.8516 64.6816C63.6973 64.6816 65.2148 63.1777 65.2148 61.3184C65.2012 59.459 63.6973 57.9551 61.8516 57.9551ZM61.8516 62.4258C61.2363 62.4258 60.7305 61.9199 60.7305 61.3047C60.7305 60.6895 61.2363 60.1836 61.8516 60.1836C62.4668 60.1836 62.9727 60.6895 62.9727 61.3047C62.9727 61.9199 62.4668 62.4258 61.8516 62.4258Z" fill="white"/>
<path d="M28.2598 5.33203H30.502V7.57422H28.2598V5.33203Z" fill="white"/>
<path d="M28.2598 52.3496H30.502V54.5918H28.2598V52.3496Z" fill="white"/>
<path d="M45.9908 11.7545L47.5761 13.3397L45.9908 14.925L44.4056 13.3397L45.9908 11.7545Z" fill="white"/>
<path d="M12.7527 48.1692L11.1674 46.584L12.7527 44.9987L14.3379 46.584L12.7527 48.1692Z" fill="white"/>
<path d="M51.7754 28.8477H54.0176V31.0898H51.7754V28.8477Z" fill="white"/>
<path d="M4.75781 28.8477H7V31.0898H4.75781V28.8477Z" fill="white"/>
<path d="M12.752 11.7529L14.3372 13.3382L12.752 14.9234L11.1668 13.3382L12.752 11.7529Z" fill="white"/>
</g>
<defs>
<clipPath id="clip0_61_547">
<rect width="70" height="70" fill="white"/>
</clipPath>
</defs>
</svg>
